<?xml version="1.0" encoding="UTF-8" standalone="no"?>
<!-- Created with Inkscape (http://www.inkscape.org/) -->

<svg
   xmlns:dc="http://purl.org/dc/elements/1.1/"
   xmlns:cc="http://creativecommons.org/ns#"
   xmlns:rdf="http://www.w3.org/1999/02/22-rdf-syntax-ns#"
   xmlns:svg="http://www.w3.org/2000/svg"
   xmlns="http://www.w3.org/2000/svg"
   xmlns:sodipodi="http://sodipodi.sourceforge.net/DTD/sodipodi-0.dtd"
   xmlns:inkscape="http://www.inkscape.org/namespaces/inkscape"
   width="28.222221mm"
   height="28.222221mm"
   viewBox="0 0 99.999996 99.999996"
   id="svg4164"
   version="1.1"
   inkscape:version="0.91 r13725"
   sodipodi:docname="facebook.svg">
  <defs
     id="defs4166" />
  <sodipodi:namedview
     id="base"
     pagecolor="#ffffff"
     bordercolor="#666666"
     borderopacity="1.0"
     inkscape:pageopacity="0.0"
     inkscape:pageshadow="2"
     inkscape:zoom="2.8"
     inkscape:cx="14.870368"
     inkscape:cy="62.215419"
     inkscape:document-units="px"
     inkscape:current-layer="layer1"
     showgrid="false"
     inkscape:snap-center="true"
     fit-margin-top="0"
     fit-margin-left="0"
     fit-margin-right="0"
     fit-margin-bottom="0"
     inkscape:window-width="1285"
     inkscape:window-height="744"
     inkscape:window-x="81"
     inkscape:window-y="24"
     inkscape:window-maximized="1" />
  <metadata
     id="metadata4169">
    <rdf:RDF>
      <cc:Work
         rdf:about="">
        <dc:format>image/svg+xml</dc:format>
        <dc:type
           rdf:resource="http://purl.org/dc/dcmitype/StillImage" />
        <dc:title />
      </cc:Work>
    </rdf:RDF>
  </metadata>
  <g
     inkscape:label="Livello 1"
     inkscape:groupmode="layer"
     id="layer1"
     transform="translate(-65.16053,-730.18237)">
    <g
       id="g4766"
       transform="matrix(0.14380045,0,0,0.14380045,64.028878,721.22553)"
       style="fill:#999999;fill-opacity:1">
      <path
         style="fill:#3c5a9f;fill-opacity:0.94117647"
         d="m 144.8237,722.19946 c -1.2375,-0.23836 -2.25,-0.85207 -2.25,-1.36382 0,-0.51175 -1.6318,-0.93045 -3.62622,-0.93045 -5.42683,0 -20.86154,-3.87113 -28.65117,-7.18592 -25.189537,-10.71911 -46.817583,-32.34716 -57.536695,-57.5367 -3.293563,-7.73976 -7.185919,-23.21393 -7.185919,-28.56783 0,-1.94859 -0.5625,-3.73037 -1.25,-3.95952 -0.993615,-0.33117 -1.303174,-43.52999 -1.509251,-210.6151 -0.229159,-185.7997 -0.08407,-210.53724 1.25,-213.11704 0.830088,-1.60521 1.512404,-4.40342 1.516257,-6.21823 0.01891,-8.90416 6.855661,-29.6014 13.26198,-40.14864 8.420317,-13.86303 20.680033,-26.99607 32.777974,-35.1129 13.747784,-9.22376 35.970684,-17.53812 46.876484,-17.53812 1.74673,0 4.48924,-0.679163 6.09445,-1.509251 2.5798,-1.334065 27.31734,-1.479159 213.11704,-1.25 167.08511,0.206077 210.28393,0.515636 210.6151,1.509251 0.22915,0.6875 2.01093,1.25 3.95952,1.25 5.3539,0 20.82807,3.89236 28.56783,7.18592 30.94143,13.16676 55.15569,41.57642 62.59291,73.43786 1.17134,5.01809 2.12971,10.46145 2.12971,12.09637 0,1.63491 0.67917,4.334 1.50926,5.99797 1.33381,2.67368 1.47913,27.47265 1.25,213.32033 -0.20608,167.16229 -0.51564,210.38041 -1.50926,210.71158 -0.6875,0.22915 -1.25,2.01093 -1.25,3.95952 0,5.3539 -3.89236,20.82807 -7.18592,28.56783 -10.78899,25.35377 -32.75412,47.18961 -57.9651,57.62393 -8.50813,3.52134 -22.64415,7.08154 -28.158,7.09168 -2.09496,0.004 -3.56639,0.39958 -3.26985,0.87939 0.29653,0.47981 -1.13941,1.14986 -3.19099,1.48899 -6.52974,1.07941 -112.23014,0.73906 -112.23014,-0.36137 0,-0.55 0.45,-1 1,-1 0.66092,0 1,-39.33333 1,-116 l 0,-116 50.87756,0 c 41.73534,0 51.08084,-0.24495 52.00891,-1.3632 0.8177,-0.98527 1.05957,-16.02545 0.87244,-54.25 l -0.25891,-52.8868 -51.81431,-0.25903 -51.81431,-0.25904 0.31431,-24.24096 c 0.31386,-24.20615 0.31824,-24.24842 3.04973,-29.42896 1.50449,-2.8534 4.39389,-6.4534 6.42089,-8 l 3.68547,-2.81201 44.0251,-0.29022 c 29.70106,-0.19579 44.44938,-0.64233 45.32911,-1.37244 2.00573,-1.66461 1.90749,-105.0916 -0.1014,-106.75884 -1.04057,-0.86359 -14.34486,-1.08461 -51.25,-0.85138 l -49.84459,0.31501 -9.88706,2.7613 c -11.69136,3.26521 -27.59248,10.78384 -36.45928,17.23928 -25.48929,18.55739 -43.29491,44.99852 -52.4969,77.95729 -3.84933,13.78716 -4.65676,22.46913 -4.65676,50.07236 l 0,25.42764 -37.3,0 c -27.67778,0 -37.60956,0.30956 -38.5,1.2 -1.73043,1.73043 -1.73043,104.86957 0,106.6 0.89044,0.89044 10.82222,1.2 38.5,1.2 l 37.3,0 0,116 c 0,76.66667 0.33908,116 1,116 0.55,0 1,0.45 1,1 0,0.97839 -205.70688,1.26561 -210.75,0.29427 z"
         id="path4768"
         inkscape:connector-curvature="0" />
    </g>
  </g>
</svg>
