<?xml version="1.0" encoding="UTF-8" standalone="no"?>
<!-- Created with Inkscape (http://www.inkscape.org/) -->

<svg
   xmlns:dc="http://purl.org/dc/elements/1.1/"
   xmlns:cc="http://creativecommons.org/ns#"
   xmlns:rdf="http://www.w3.org/1999/02/22-rdf-syntax-ns#"
   xmlns:svg="http://www.w3.org/2000/svg"
   xmlns="http://www.w3.org/2000/svg"
   xmlns:sodipodi="http://sodipodi.sourceforge.net/DTD/sodipodi-0.dtd"
   xmlns:inkscape="http://www.inkscape.org/namespaces/inkscape"
   id="svg2"
   version="1.1"
   inkscape:version="0.91 r13725"
   width="104.13559"
   height="104.13559"
   viewBox="0 0 104.13559 104.13559"
   sodipodi:docname="google.svg">
  <metadata
     id="metadata8">
    <rdf:RDF>
      <cc:Work
         rdf:about="">
        <dc:format>image/svg+xml</dc:format>
        <dc:type
           rdf:resource="http://purl.org/dc/dcmitype/StillImage" />
        <dc:title />
      </cc:Work>
    </rdf:RDF>
  </metadata>
  <defs
     id="defs6" />
  <sodipodi:namedview
     pagecolor="#ffffff"
     bordercolor="#666666"
     borderopacity="1"
     objecttolerance="10"
     gridtolerance="10"
     guidetolerance="10"
     inkscape:pageopacity="0"
     inkscape:pageshadow="2"
     inkscape:window-width="1285"
     inkscape:window-height="744"
     id="namedview4"
     showgrid="false"
     inkscape:snap-center="true"
     fit-margin-top="0"
     fit-margin-left="0"
     fit-margin-right="0"
     fit-margin-bottom="0"
     inkscape:zoom="3.6875"
     inkscape:cx="18.056073"
     inkscape:cy="16.386364"
     inkscape:window-x="81"
     inkscape:window-y="24"
     inkscape:window-maximized="1"
     inkscape:current-layer="svg2" />
  <path
     style="fill:#dc4a3f;fill-opacity:0.94117647"
     d="M 30.505713,79.673372 C 18.665597,77.425242 9.5902109,68.381442 7.5743884,56.821862 c -0.6754726,-3.87344 -0.6754726,-5.62894 0,-9.50238 3.0839286,-17.68456 21.5845506,-27.7692 38.9939636,-21.2555 2.202093,0.8239 7.100882,3.98034 7.722211,4.97565 0.312275,0.50023 -0.197728,1.142 -3.130739,3.93962 -1.927079,1.83811 -3.702975,3.34961 -3.946433,3.35887 -0.243457,0.009 -1.090958,-0.4528 -1.883336,-1.02679 -3.258496,-2.36044 -9.165098,-3.45482 -13.365764,-2.47641 -4.51572,1.05179 -9.237854,4.54267 -11.483246,8.48909 -4.920405,8.64793 -1.601057,19.96408 7.155614,24.39455 6.736523,3.40838 15.314338,2.27884 20.261189,-2.66801 1.812999,-1.813 4.02393,-5.91712 3.676022,-6.82375 -0.163758,-0.42675 -1.515456,-0.53168 -7.860599,-0.6102 l -7.662833,-0.0948 -0.09816,-4.66402 -0.09816,-4.66401 13.462185,0.0921 13.462189,0.0921 0.238738,2.11011 c 0.316024,2.79321 -0.263416,8.40373 -1.172149,11.34956 -2.714597,8.79988 -9.231836,15.0449 -18.077984,17.32288 -3.730003,0.96052 -9.689808,1.19099 -13.26139,0.51284 z m 50.215349,-16.4367 c -0.100435,-0.43521 -0.222146,-2.21562 -0.270464,-3.95646 l -0.08785,-3.16516 -3.868535,-0.17585 -3.868535,-0.17584 -0.101091,-3.46495 c -0.06572,-2.25275 0.04162,-3.63689 0.306827,-3.95645 0.301352,-0.36311 1.361334,-0.49151 4.057545,-0.49151 l 3.649632,0 0.0054,-3.42893 c 0.0028,-1.88591 0.134473,-3.63238 0.292246,-3.88103 0.211813,-0.33383 1.291472,-0.42584 4.126915,-0.35169 l 3.840055,0.10042 0.09982,3.78062 0.09982,3.78061 4.032479,0 4.03248,0 0,4.03286 0,4.03286 -3.956456,0.0994 -3.956456,0.0994 -0.08785,3.16516 c -0.141912,5.11288 0.189414,4.74775 -4.308211,4.74775 -3.709352,0 -3.86204,-0.0299 -4.037748,-0.79129 z"
     id="path4144"
     inkscape:connector-curvature="0" />
</svg>
