<?xml version="1.0" encoding="UTF-8" standalone="no"?>
<!-- Created with Inkscape (http://www.inkscape.org/) -->

<svg
   xmlns:dc="http://purl.org/dc/elements/1.1/"
   xmlns:cc="http://creativecommons.org/ns#"
   xmlns:rdf="http://www.w3.org/1999/02/22-rdf-syntax-ns#"
   xmlns:svg="http://www.w3.org/2000/svg"
   xmlns="http://www.w3.org/2000/svg"
   xmlns:sodipodi="http://sodipodi.sourceforge.net/DTD/sodipodi-0.dtd"
   xmlns:inkscape="http://www.inkscape.org/namespaces/inkscape"
   width="28.222221mm"
   height="28.222221mm"
   viewBox="0 0 99.999997 99.999997"
   id="svg2"
   version="1.1"
   inkscape:version="0.91 r13725"
   sodipodi:docname="ladybug.svg">
  <defs
     id="defs4" />
  <sodipodi:namedview
     id="base"
     pagecolor="#ffffff"
     bordercolor="#666666"
     borderopacity="1.0"
     inkscape:pageopacity="0.0"
     inkscape:pageshadow="2"
     inkscape:zoom="2.8"
     inkscape:cx="50.840003"
     inkscape:cy="62.310742"
     inkscape:document-units="px"
     inkscape:current-layer="layer1"
     showgrid="false"
     inkscape:object-paths="true"
     inkscape:object-nodes="false"
     inkscape:snap-smooth-nodes="true"
     showguides="true"
     inkscape:guide-bbox="true"
     inkscape:snap-center="false"
     inkscape:snap-to-guides="true"
     inkscape:snap-intersection-paths="false"
     fit-margin-top="0"
     fit-margin-left="0"
     fit-margin-right="0"
     fit-margin-bottom="0"
     inkscape:snap-object-midpoints="true"
     inkscape:window-width="1285"
     inkscape:window-height="744"
     inkscape:window-x="81"
     inkscape:window-y="24"
     inkscape:window-maximized="1" />
  <metadata
     id="metadata7">
    <rdf:RDF>
      <cc:Work
         rdf:about="">
        <dc:format>image/svg+xml</dc:format>
        <dc:type
           rdf:resource="http://purl.org/dc/dcmitype/StillImage" />
        <dc:title></dc:title>
      </cc:Work>
    </rdf:RDF>
  </metadata>
  <g
     inkscape:label="Livello 1"
     inkscape:groupmode="layer"
     id="layer1"
     transform="translate(-115.86318,-503.24619)">
    <g
       id="g4456"
       transform="translate(0.50586522,-0.579593)">
      <path
         sodipodi:nodetypes="cc"
         inkscape:connector-curvature="0"
         id="path4437"
         d="m 165.35715,540.30732 c 4.8104,-16.04569 11.33118,-25.69415 19.9162,-27.06382"
         style="fill:none;fill-rule:evenodd;stroke:#000000;stroke-width:1.55726671;stroke-linecap:butt;stroke-linejoin:miter;stroke-miterlimit:4;stroke-dasharray:none;stroke-opacity:1" />
      <path
         sodipodi:nodetypes="cc"
         inkscape:connector-curvature="0"
         id="path4437-6"
         d="m 165.35715,540.30733 c -4.8104,-16.04569 -11.33118,-25.69415 -19.9162,-27.06382"
         style="fill:none;fill-rule:evenodd;stroke:#000000;stroke-width:1.55726671;stroke-linecap:butt;stroke-linejoin:miter;stroke-miterlimit:4;stroke-dasharray:none;stroke-opacity:1" />
      <path
         sodipodi:nodetypes="zcz"
         inkscape:connector-curvature="0"
         id="path4384"
         d="m 165.35715,540.30733 c 28.45488,-1.00764 25.33923,43.88884 0,58.51845 -25.33924,-14.62961 -28.45489,-57.51081 0,-58.51845 z"
         style="fill:#000000;fill-opacity:1;fill-rule:evenodd;stroke:none;stroke-width:1px;stroke-linecap:butt;stroke-linejoin:miter;stroke-opacity:1" />
      <path
         d="m 181.02105,543.48726 a 15.983416,15.983416 0 0 1 -18.66104,12.52001 15.983416,15.983416 0 0 1 -12.73662,-18.51389 15.983416,15.983416 0 0 1 18.36422,-12.95148 15.983416,15.983416 0 0 1 13.1646,18.21205"
         sodipodi:open="true"
         sodipodi:end="0.15367362"
         sodipodi:start="0.20028526"
         sodipodi:ry="15.983416"
         sodipodi:rx="15.983416"
         sodipodi:cy="540.30737"
         sodipodi:cx="165.35715"
         sodipodi:type="arc"
         id="path4334"
         style="opacity:1;fill:#000000;fill-opacity:1;fill-rule:evenodd;stroke:none;stroke-width:10;stroke-linecap:round;stroke-linejoin:miter;stroke-miterlimit:4;stroke-dasharray:none;stroke-dashoffset:0;stroke-opacity:0" />
      <path
         transform="matrix(-0.25881905,0.96592583,-0.96592583,-0.25881905,0,0)"
         d="m 537.61769,-299.56458 a 29.259226,29.259226 0 0 1 -14.62962,25.33924 29.259226,29.259226 0 0 1 -29.25922,0 29.259226,29.259226 0 0 1 -14.62962,-25.33924 l 29.25923,0 z"
         sodipodi:end="3.1415927"
         sodipodi:start="0"
         sodipodi:ry="29.259226"
         sodipodi:rx="29.259226"
         sodipodi:cy="-299.56458"
         sodipodi:cx="508.35846"
         sodipodi:type="arc"
         id="path4235-1"
         style="opacity:1;fill:#d82020;fill-opacity:1;fill-rule:evenodd;stroke:none;stroke-width:10;stroke-linecap:round;stroke-linejoin:miter;stroke-miterlimit:4;stroke-dasharray:none;stroke-dashoffset:0;stroke-opacity:0" />
      <path
         transform="matrix(-0.25881905,-0.96592583,0.96592583,-0.25881905,0,0)"
         d="m -564.69439,19.880911 a 29.259226,29.259226 0 0 1 -14.62961,25.339233 29.259226,29.259226 0 0 1 -29.25923,-10e-7 29.259226,29.259226 0 0 1 -14.62961,-25.339233 l 29.25923,1e-6 z"
         sodipodi:end="3.1415927"
         sodipodi:start="0"
         sodipodi:ry="29.259226"
         sodipodi:rx="29.259226"
         sodipodi:cy="19.880911"
         sodipodi:cx="-593.95361"
         sodipodi:type="arc"
         id="path4235-9-2"
         style="opacity:1;fill:#d82020;fill-opacity:1;fill-rule:evenodd;stroke:none;stroke-width:10;stroke-linecap:round;stroke-linejoin:miter;stroke-miterlimit:4;stroke-dasharray:none;stroke-dashoffset:0;stroke-opacity:0" />
      <path
         transform="matrix(-0.5,0.8660254,-0.8660254,-0.5,0,0)"
         d="m 443.75978,-413.35718 a 29.259226,29.259226 0 0 1 -14.62962,25.33924 29.259226,29.259226 0 0 1 -29.25922,-10e-6 29.259226,29.259226 0 0 1 -14.62962,-25.33923 l 29.25923,0 z"
         sodipodi:end="3.1415927"
         sodipodi:start="0"
         sodipodi:ry="29.259226"
         sodipodi:rx="29.259226"
         sodipodi:cy="-413.35718"
         sodipodi:cx="414.50055"
         sodipodi:type="arc"
         id="path4235"
         style="opacity:1;fill:#c02020;fill-opacity:1;fill-rule:evenodd;stroke:none;stroke-width:10;stroke-linecap:round;stroke-linejoin:miter;stroke-miterlimit:4;stroke-dasharray:none;stroke-dashoffset:0;stroke-opacity:0" />
      <path
         transform="matrix(-0.5,-0.8660254,0.8660254,-0.5,0,0)"
         d="m -550.59844,-126.95018 a 29.259226,29.259226 0 0 1 -14.62961,25.33923 29.259226,29.259226 0 0 1 -29.25923,0 29.259226,29.259226 0 0 1 -14.62961,-25.33923 l 29.25922,0 z"
         sodipodi:end="3.1415927"
         sodipodi:start="0"
         sodipodi:ry="29.259226"
         sodipodi:rx="29.259226"
         sodipodi:cy="-126.95018"
         sodipodi:cx="-579.85767"
         sodipodi:type="arc"
         id="path4235-9"
         style="opacity:1;fill:#c02020;fill-opacity:1;fill-rule:evenodd;stroke:none;stroke-width:10;stroke-linecap:round;stroke-linejoin:miter;stroke-miterlimit:4;stroke-dasharray:none;stroke-dashoffset:0;stroke-opacity:0" />
      <path
         sodipodi:open="true"
         d="m 135.70142,568.55658 a 6.3054056,6.3054056 0 0 1 -7.36172,4.9391 6.3054056,6.3054056 0 0 1 -5.02455,-7.30367 6.3054056,6.3054056 0 0 1 7.24462,-5.10932 6.3054056,6.3054056 0 0 1 5.19339,7.1846"
         sodipodi:end="0.15367354"
         sodipodi:start="0.20028572"
         sodipodi:ry="6.3054056"
         sodipodi:rx="6.3054056"
         sodipodi:cy="567.30212"
         sodipodi:cx="129.52206"
         sodipodi:type="arc"
         id="path4282"
         style="opacity:1;fill:#000000;fill-opacity:1;fill-rule:evenodd;stroke:none;stroke-width:10;stroke-linecap:round;stroke-linejoin:miter;stroke-miterlimit:4;stroke-dasharray:none;stroke-dashoffset:0;stroke-opacity:0" />
      <path
         sodipodi:open="true"
         d="m 149.99427,550.42035 a 6.3054056,6.3054056 0 0 1 -7.36172,4.9391 6.3054056,6.3054056 0 0 1 -5.02455,-7.30367 6.3054056,6.3054056 0 0 1 7.24462,-5.10932 6.3054056,6.3054056 0 0 1 5.19339,7.1846"
         sodipodi:end="0.15367354"
         sodipodi:start="0.20028572"
         sodipodi:ry="6.3054056"
         sodipodi:rx="6.3054056"
         sodipodi:cy="549.16589"
         sodipodi:cx="143.81491"
         sodipodi:type="arc"
         id="path4282-7"
         style="opacity:1;fill:#000000;fill-opacity:1;fill-rule:evenodd;stroke:none;stroke-width:10;stroke-linecap:round;stroke-linejoin:miter;stroke-miterlimit:4;stroke-dasharray:none;stroke-dashoffset:0;stroke-opacity:0" />
      <path
         sodipodi:open="true"
         d="m 193.86306,550.86224 a 6.3054056,6.3054056 0 0 1 -7.36172,4.93911 6.3054056,6.3054056 0 0 1 -5.02455,-7.30367 6.3054056,6.3054056 0 0 1 7.24462,-5.10932 6.3054056,6.3054056 0 0 1 5.19339,7.18459"
         sodipodi:end="0.15367354"
         sodipodi:start="0.20028572"
         sodipodi:ry="6.3054056"
         sodipodi:rx="6.3054056"
         sodipodi:cy="549.60779"
         sodipodi:cx="187.6837"
         sodipodi:type="arc"
         id="path4282-0"
         style="opacity:1;fill:#000000;fill-opacity:1;fill-rule:evenodd;stroke:none;stroke-width:10;stroke-linecap:round;stroke-linejoin:miter;stroke-miterlimit:4;stroke-dasharray:none;stroke-dashoffset:0;stroke-opacity:0" />
      <path
         sodipodi:open="true"
         d="m 207.37159,568.55658 a 6.3054056,6.3054056 0 0 1 -7.36172,4.9391 6.3054056,6.3054056 0 0 1 -5.02455,-7.30367 6.3054056,6.3054056 0 0 1 7.24462,-5.10932 6.3054056,6.3054056 0 0 1 5.19339,7.1846"
         sodipodi:end="0.15367354"
         sodipodi:start="0.20028572"
         sodipodi:ry="6.3054056"
         sodipodi:rx="6.3054056"
         sodipodi:cy="567.30212"
         sodipodi:cx="201.19223"
         sodipodi:type="arc"
         id="path4282-9"
         style="opacity:1;fill:#000000;fill-opacity:1;fill-rule:evenodd;stroke:none;stroke-width:10;stroke-linecap:round;stroke-linejoin:miter;stroke-miterlimit:4;stroke-dasharray:none;stroke-dashoffset:0;stroke-opacity:0" />
      <path
         transform="matrix(0.5,-0.8660254,0.8660254,0.5,0,0)"
         d="m -422.40135,413.35718 a 6.3054056,6.3054056 0 0 1 6.3054,-6.30541 6.3054056,6.3054056 0 0 1 6.30541,6.30541 l -6.30541,0 z"
         sodipodi:end="0"
         sodipodi:start="3.1415927"
         sodipodi:ry="6.3054056"
         sodipodi:rx="6.3054056"
         sodipodi:cy="413.35718"
         sodipodi:cx="-416.09595"
         sodipodi:type="arc"
         id="path4282-3"
         style="opacity:1;fill:#000000;fill-opacity:1;fill-rule:evenodd;stroke:none;stroke-width:10;stroke-linecap:round;stroke-linejoin:miter;stroke-miterlimit:4;stroke-dasharray:none;stroke-dashoffset:0;stroke-opacity:0" />
      <path
         inkscape:transform-center-y="0.70787716"
         inkscape:transform-center-x="0.31461695"
         transform="matrix(0.5,0.8660254,-0.8660254,0.5,0,0)"
         d="m 575.33662,126.95018 a 6.3054056,6.3054056 0 0 1 6.30541,-6.30541 6.3054056,6.3054056 0 0 1 6.3054,6.30541 l -6.3054,0 z"
         sodipodi:end="0"
         sodipodi:start="3.1415927"
         sodipodi:ry="6.3054056"
         sodipodi:rx="6.3054056"
         sodipodi:cy="126.95018"
         sodipodi:cx="581.64203"
         sodipodi:type="arc"
         id="path4282-3-6"
         style="opacity:1;fill:#000000;fill-opacity:1;fill-rule:evenodd;stroke:none;stroke-width:10;stroke-linecap:round;stroke-linejoin:miter;stroke-miterlimit:4;stroke-dasharray:none;stroke-dashoffset:0;stroke-opacity:0" />
      <path
         sodipodi:open="true"
         d="m 189.60275,514.12243 a 4.4177136,4.4177136 0 0 1 -5.1578,3.46045 4.4177136,4.4177136 0 0 1 -3.52031,-5.11712 4.4177136,4.4177136 0 0 1 5.07575,-3.57971 4.4177136,4.4177136 0 0 1 3.63861,5.0337"
         sodipodi:end="0.15367354"
         sodipodi:start="0.20028572"
         sodipodi:ry="4.4177136"
         sodipodi:rx="4.4177136"
         sodipodi:cy="513.24353"
         sodipodi:cx="185.27335"
         sodipodi:type="arc"
         id="path4282-0-6"
         style="opacity:1;fill:#000000;fill-opacity:1;fill-rule:evenodd;stroke:none;stroke-width:10;stroke-linecap:round;stroke-linejoin:miter;stroke-miterlimit:4;stroke-dasharray:none;stroke-dashoffset:0;stroke-opacity:0" />
      <path
         sodipodi:open="true"
         d="m 149.82234,514.12243 a 4.4177136,4.4177136 0 0 1 -5.1578,3.46045 4.4177136,4.4177136 0 0 1 -3.52031,-5.11712 4.4177136,4.4177136 0 0 1 5.07575,-3.57971 4.4177136,4.4177136 0 0 1 3.63861,5.0337"
         sodipodi:end="0.15367354"
         sodipodi:start="0.20028572"
         sodipodi:ry="4.4177136"
         sodipodi:rx="4.4177136"
         sodipodi:cy="513.24353"
         sodipodi:cx="145.49294"
         sodipodi:type="arc"
         id="path4282-0-6-2"
         style="opacity:1;fill:#000000;fill-opacity:1;fill-rule:evenodd;stroke:none;stroke-width:10;stroke-linecap:round;stroke-linejoin:miter;stroke-miterlimit:4;stroke-dasharray:none;stroke-dashoffset:0;stroke-opacity:0" />
    </g>
  </g>
</svg>
