<?xml version="1.0" encoding="UTF-8" standalone="no"?>
<!-- Created with Inkscape (http://www.inkscape.org/) -->

<svg
   xmlns:dc="http://purl.org/dc/elements/1.1/"
   xmlns:cc="http://creativecommons.org/ns#"
   xmlns:rdf="http://www.w3.org/1999/02/22-rdf-syntax-ns#"
   xmlns:svg="http://www.w3.org/2000/svg"
   xmlns="http://www.w3.org/2000/svg"
   xmlns:sodipodi="http://sodipodi.sourceforge.net/DTD/sodipodi-0.dtd"
   xmlns:inkscape="http://www.inkscape.org/namespaces/inkscape"
   width="28.222221mm"
   height="28.222221mm"
   viewBox="0 0 99.999997 99.999997"
   id="svg2"
   version="1.1"
   inkscape:version="0.91 r13725"
   sodipodi:docname="link.svg">
  <defs
     id="defs4" />
  <sodipodi:namedview
     id="base"
     pagecolor="#ffffff"
     bordercolor="#666666"
     borderopacity="1.0"
     inkscape:pageopacity="0.0"
     inkscape:pageshadow="2"
     inkscape:zoom="3.959798"
     inkscape:cx="46.415818"
     inkscape:cy="16.15063"
     inkscape:document-units="px"
     inkscape:current-layer="layer1"
     showgrid="false"
     inkscape:snap-center="true"
     fit-margin-top="0"
     fit-margin-left="0"
     fit-margin-right="0"
     fit-margin-bottom="0"
     inkscape:window-width="1285"
     inkscape:window-height="744"
     inkscape:window-x="81"
     inkscape:window-y="24"
     inkscape:window-maximized="1" />
  <metadata
     id="metadata7">
    <rdf:RDF>
      <cc:Work
         rdf:about="">
        <dc:format>image/svg+xml</dc:format>
        <dc:type
           rdf:resource="http://purl.org/dc/dcmitype/StillImage" />
        <dc:title />
      </cc:Work>
    </rdf:RDF>
  </metadata>
  <g
     inkscape:label="Livello 1"
     inkscape:groupmode="layer"
     id="layer1"
     transform="translate(-90.887276,-227.47762)">
    <g
       style="font-style:normal;font-weight:normal;font-size:40px;line-height:125%;font-family:Sans;letter-spacing:0px;word-spacing:0px;fill:#c08000;fill-opacity:1;stroke:none;stroke-width:1px;stroke-linecap:butt;stroke-linejoin:miter;stroke-opacity:1"
       id="text4136"
       transform="matrix(2.4150944,0,0,2.4150944,-135.68955,-456.23614)">
      <path
         d="m 133.1529,291.82092 q 0,2.20703 -1.11328,3.67188 -0.60547,0.80078 -3.37891,3.61328 -1.28906,1.36719 -4.02343,3.90625 -1.58204,1.28906 -4.0625,1.28906 -1.36719,0 -2.75391,-0.58594 l -3.41797,3.33985 q 0.66406,1.77734 0.66406,2.89062 0,2.20703 -1.25,3.76953 -0.64453,0.80079 -3.28125,3.47657 -1.23047,1.28906 -3.80859,3.75 -1.67969,1.46484 -4.14063,1.46484 -2.656246,0 -4.687496,-2.01172 -2.011718,-1.99219 -2.011718,-4.6289 0,-2.38282 1.289062,-3.90625 0.722656,-0.85938 3.378902,-3.55469 1.17188,-1.21094 3.59375,-3.53516 0.72266,-0.625 2.07032,-1.07422 1.26953,-0.41015 2.30468,-0.41015 1.40625,0 2.77344,0.66406 l 3.39844,-3.4375 q -0.66406,-1.07422 -0.66406,-2.8125 0,-1.73828 0.74218,-3.08594 0.66407,-1.1914 2.92969,-3.45703 1.69922,-1.64062 3.39844,-3.28125 0.50781,-0.50781 1.58203,-1.44531 1.66016,-1.23047 3.80859,-1.23047 2.69532,0 4.66797,1.97266 1.99219,1.95312 1.99219,4.64843 z m -4.39453,0.0391 q 0,-0.91797 -0.66406,-1.58204 -0.64453,-0.68359 -1.54297,-0.68359 -0.87891,0 -1.46485,0.50781 -0.60546,0.64453 -1.8164,1.89453 -1.3086,1.34766 -3.59375,3.67188 0.44922,-0.15625 0.89844,-0.15625 0.8789,0 1.62109,0.70312 0.76172,0.70313 0.76172,1.58204 0,0.39062 -0.21485,0.95703 2.5,-2.48047 4.0625,-4.10157 0.625,-0.5664 1.67969,-1.8164 0.27344,-0.44922 0.27344,-0.97656 z m 2.89062,-0.0586 q 0,-2.07031 -1.52343,-3.57422 -1.52344,-1.52343 -3.59375,-1.52343 -1.97266,0 -3.14453,0.99609 -0.76172,0.64453 -3.65235,3.53516 -1.13281,1.09375 -3.26172,3.3789 -0.99609,1.19141 -0.99609,3.14453 0,1.28907 0.35156,1.60157 0.39063,-0.39063 1.19141,-1.15235 -0.0195,-0.23437 -0.0195,-0.41015 0,-1.54297 0.66406,-2.30469 0.46875,-0.52735 3.75,-3.8086 0.99609,-1.05468 3.16406,-2.96875 0.78125,-0.5664 1.95313,-0.5664 1.5039,0 2.55859,1.09375 1.05469,1.07422 1.05469,2.57812 0,1.23047 -0.56641,2.07032 -0.66406,0.97656 -1.95312,2.16796 -1.09375,0.95704 -2.1875,1.9336 -1.01563,1.03515 -2.01172,2.07031 -1.34766,1.23047 -2.48047,1.23047 -0.11719,0 -0.33203,-0.0195 -0.21485,-0.0391 -0.33203,-0.0391 -0.13672,0 -1.32813,1.30859 0.78125,0.3125 1.67969,0.3125 1.44531,0 2.44141,-0.625 0.68359,-0.42969 3.26171,-2.96875 1.40625,-1.30859 2.79297,-2.61719 1.75782,-1.75781 2.22657,-2.98828 0.29296,-0.76172 0.29296,-1.85547 z m -10.2539,6.03516 q -0.19531,-0.70313 -0.9375,-0.87891 -1.25,1.11328 -6.89453,6.73828 -5.91797,5.87891 -5.91797,6.13282 0,0.19531 0.29297,0.54687 0.29297,0.33203 0.48828,0.33203 0.2539,0 6.1914,-5.9375 5.72266,-5.72265 6.77735,-6.93359 z m -7.83203,12.03125 q 0,-0.95703 -0.27344,-1.64063 -0.42969,0.3125 -0.87891,0.64453 -0.46875,0.41016 -0.46875,0.91797 0,0.11719 0.0195,0.35157 0.0195,0.23437 0.0195,0.35156 0,0.66406 -0.42969,1.30859 -0.46875,0.70313 -3.59375,3.8086 -3.10547,3.10546 -3.67188,3.39843 -0.8789,0.44922 -1.77734,0.44922 -1.50391,0 -2.597657,-1.07422 -1.074219,-1.05468 -1.074219,-2.55859 0,-1.48438 0.917969,-2.48047 0.312497,-0.35156 3.710937,-3.67187 1.01563,-1.07422 2.96875,-2.85157 0.72266,-0.52734 1.89453,-0.52734 0.0781,0 0.23438,0.0391 0.15625,0.0195 0.23437,0.0195 0.15625,0 1.25,-1.28906 -0.76172,-0.33203 -1.62109,-0.33203 -1.73828,0 -3.02735,1.07422 -1.26953,1.05469 -4.3164,4.12109 -0.9961,0.95703 -2.832033,2.94922 -0.859375,1.05469 -0.859375,2.94922 0,2.08984 1.523437,3.61328 1.523441,1.52344 3.593751,1.52344 1.875,0 3.06641,-0.9961 0.95703,-0.80078 4.0625,-3.90625 1.03515,-0.99609 2.98828,-3.125 0.9375,-1.15234 0.9375,-3.0664 z m -4.23828,2.24609 q -0.39063,0.0977 -0.78125,0.0977 -0.91797,0 -1.66016,-0.78125 -0.74219,-0.80078 -0.74219,-1.71875 0,-0.35156 0.0977,-0.76172 -1.91406,1.75781 -5.44922,5.50781 -0.50781,0.60547 -0.50781,1.3086 0,0.89843 0.66406,1.52343 0.66406,0.64453 1.5625,0.64453 0.83984,0 1.26953,-0.3125 0.21484,-0.15625 1.64063,-1.5625 1.30859,-1.32812 3.90625,-3.94531 z"
         style="fill:#c08000;fill-opacity:1"
         id="path4141"
         inkscape:connector-curvature="0" />
    </g>
  </g>
</svg>
