<?xml version="1.0" encoding="UTF-8" standalone="no"?>
<!-- Created with Inkscape (http://www.inkscape.org/) -->

<svg
   xmlns:dc="http://purl.org/dc/elements/1.1/"
   xmlns:cc="http://creativecommons.org/ns#"
   xmlns:rdf="http://www.w3.org/1999/02/22-rdf-syntax-ns#"
   xmlns:svg="http://www.w3.org/2000/svg"
   xmlns="http://www.w3.org/2000/svg"
   xmlns:sodipodi="http://sodipodi.sourceforge.net/DTD/sodipodi-0.dtd"
   xmlns:inkscape="http://www.inkscape.org/namespaces/inkscape"
   width="28.222221mm"
   height="28.222221mm"
   viewBox="0 0 99.999997 99.999997"
   id="svg2"
   version="1.1"
   inkscape:version="0.91 r13725"
   sodipodi:docname="pencil.svg">
  <defs
     id="defs4" />
  <sodipodi:namedview
     id="base"
     pagecolor="#ffffff"
     bordercolor="#666666"
     borderopacity="1.0"
     inkscape:pageopacity="0.0"
     inkscape:pageshadow="2"
     inkscape:zoom="2.8"
     inkscape:cx="-28.061153"
     inkscape:cy="15.822078"
     inkscape:document-units="px"
     inkscape:current-layer="layer1"
     showgrid="false"
     inkscape:snap-center="true"
     fit-margin-top="0"
     fit-margin-left="0"
     fit-margin-right="0"
     fit-margin-bottom="0"
     inkscape:window-width="1285"
     inkscape:window-height="744"
     inkscape:window-x="81"
     inkscape:window-y="24"
     inkscape:window-maximized="1" />
  <metadata
     id="metadata7">
    <rdf:RDF>
      <cc:Work
         rdf:about="">
        <dc:format>image/svg+xml</dc:format>
        <dc:type
           rdf:resource="http://purl.org/dc/dcmitype/StillImage" />
        <dc:title />
      </cc:Work>
    </rdf:RDF>
  </metadata>
  <g
     inkscape:label="Livello 1"
     inkscape:groupmode="layer"
     id="layer1"
     transform="translate(-195.69753,-274.3544)">
    <g
       style="font-style:normal;font-weight:normal;font-size:40px;line-height:125%;font-family:Sans;letter-spacing:0px;word-spacing:0px;fill:#c08000;fill-opacity:1;stroke:none;stroke-width:1px;stroke-linecap:butt;stroke-linejoin:miter;stroke-opacity:1"
       id="text4136"
       transform="matrix(-3.5418903,0,0,3.5418903,1001.5462,-938.85838)">
      <path
         d="m 222.86551,366.11221 q 0.15625,-0.15625 0.27344,-0.42968 0.11718,-0.27344 0.11718,-0.46875 0,-0.0977 -0.0391,-0.25391 l -1.15234,-4.64844 q -0.44922,0.44922 -1.03516,0.44922 0,1.40625 -1.05469,2.46094 -1.05468,1.07422 -2.48046,1.07422 0,0.54687 -0.42969,1.01562 l 4.6289,1.15235 q 0.15625,0.0391 0.29297,0.0391 0.19532,0 0.44922,-0.0977 0.25391,-0.11719 0.42969,-0.29297 z m -17.67578,-14.6875 2.98828,-2.96875 0.25391,-2.85156 -2.85157,0.25391 -2.98828,2.96875 -0.2539,2.85156 2.85156,-0.25391 z m -0.29297,-7.1289 5.17578,-0.35157 12.44141,12.44141 3.59375,12.96875 -12.98828,-3.59375 -12.42188,-12.42187 0.33203,-5.17579 3.86719,-3.86718 z m 4.82422,4.25781 10.2539,10.25391 0.0391,0 q 1.23047,0 1.23047,-1.09375 0,-0.19532 -0.0391,-0.42969 l -11.21093,-11.21094 -0.27344,2.48047 z m 7.83203,13.96484 q 0.64453,0 1.17187,-0.52734 0.52735,-0.52734 0.52735,-1.17188 0,-0.29296 -0.11719,-0.625 l -10.09766,-10.11718 -2.20703,2.20703 10.09766,10.11719 q 0.33203,0.11718 0.625,0.11718 z m -12.85156,-14.57031 q 0.2539,-0.25391 0.54687,-0.44922 0.3125,-0.21484 0.625,-0.3125 0.25391,-0.0781 0.44922,-0.0781 0.27344,0 0.42969,0.17578 0.17578,0.15625 0.17578,0.41015 0,0.19532 -0.0977,0.46875 -0.11718,0.3125 -0.3125,0.625 -0.17578,0.29297 -0.44922,0.54688 -0.27343,0.27344 -0.5664,0.46875 -0.27344,0.19531 -0.60547,0.29297 -0.27344,0.0781 -0.44922,0.0781 -0.27344,0 -0.42969,-0.13672 -0.15625,-0.13671 -0.15625,-0.44921 0,-0.21485 0.0781,-0.46875 0.0977,-0.3125 0.29297,-0.60547 0.19531,-0.29297 0.46875,-0.56641 z m 0.60547,5.03906 -2.48047,0.27344 11.21093,11.21094 q 0.21485,0.0391 0.41016,0.0391 1.11328,0 1.09375,-1.28906 l -10.23437,-10.23438 z"
         style="fill:#c08000;fill-opacity:1"
         id="path4141"
         inkscape:connector-curvature="0" />
    </g>
  </g>
</svg>
