<?xml version="1.0" encoding="UTF-8" standalone="no"?>
<!-- Created with Inkscape (http://www.inkscape.org/) -->

<svg
   xmlns:dc="http://purl.org/dc/elements/1.1/"
   xmlns:cc="http://creativecommons.org/ns#"
   xmlns:rdf="http://www.w3.org/1999/02/22-rdf-syntax-ns#"
   xmlns:svg="http://www.w3.org/2000/svg"
   xmlns="http://www.w3.org/2000/svg"
   xmlns:sodipodi="http://sodipodi.sourceforge.net/DTD/sodipodi-0.dtd"
   xmlns:inkscape="http://www.inkscape.org/namespaces/inkscape"
   width="28.222221mm"
   height="28.222221mm"
   viewBox="0 0 99.999997 99.999997"
   id="svg2"
   version="1.1"
   inkscape:version="0.91 r13725"
   sodipodi:docname="timer-white.svg">
  <defs
     id="defs4" />
  <sodipodi:namedview
     id="base"
     pagecolor="#ffffff"
     bordercolor="#666666"
     borderopacity="1.0"
     inkscape:pageopacity="0.0"
     inkscape:pageshadow="2"
     inkscape:zoom="2.8"
     inkscape:cx="45.150421"
     inkscape:cy="57.763514"
     inkscape:document-units="px"
     inkscape:current-layer="layer1"
     showgrid="false"
     inkscape:snap-object-midpoints="true"
     fit-margin-top="0"
     fit-margin-left="0"
     fit-margin-right="0"
     fit-margin-bottom="0"
     inkscape:window-width="1285"
     inkscape:window-height="744"
     inkscape:window-x="81"
     inkscape:window-y="24"
     inkscape:window-maximized="1"
     inkscape:object-paths="true"
     inkscape:snap-smooth-nodes="false" />
  <metadata
     id="metadata7">
    <rdf:RDF>
      <cc:Work
         rdf:about="">
        <dc:format>image/svg+xml</dc:format>
        <dc:type
           rdf:resource="http://purl.org/dc/dcmitype/StillImage" />
        <dc:title />
      </cc:Work>
    </rdf:RDF>
  </metadata>
  <g
     inkscape:label="Livello 1"
     inkscape:groupmode="layer"
     id="layer1"
     transform="translate(-165.08929,-273.04858)">
    <ellipse
       style="opacity:1;fill:#ffffff;fill-opacity:0.94117647;fill-rule:evenodd;stroke:none;stroke-width:10;stroke-linecap:round;stroke-linejoin:miter;stroke-miterlimit:4;stroke-dasharray:none;stroke-dashoffset:0;stroke-opacity:0"
       id="path4135"
       cx="215.05083"
       cy="323.05954"
       rx="41.747242"
       ry="41.772774" />
    <g
       style="font-style:normal;font-weight:normal;font-size:40px;line-height:125%;font-family:Sans;letter-spacing:0px;word-spacing:0px;fill:#40c0ff;fill-opacity:1;stroke:none;stroke-width:1px;stroke-linecap:butt;stroke-linejoin:miter;stroke-opacity:1"
       id="text4136"
       transform="matrix(2.88,0,0,2.88,-319.76787,-691.93133)">
      <path
         d="m 201.33929,352.42358 q 0,6.44532 -4.58984,11.03516 -4.58984,4.58984 -11.03516,4.58984 -6.44531,0 -11.03515,-4.58984 -4.58985,-4.58984 -4.58985,-11.03516 0,-6.44531 4.58985,-11.03515 4.58984,-4.58985 11.03515,-4.58985 6.44532,0 11.03516,4.58985 4.58984,4.58984 4.58984,11.03515 z m -2.1875,0 q 0,-5.54687 -3.94531,-9.49218 -3.94531,-3.94532 -9.49219,-3.94532 -5.54687,0 -9.49218,3.94532 -3.94532,3.94531 -3.94532,9.49218 0,5.54688 3.94532,9.49219 3.94531,3.94531 9.49218,3.94531 5.54688,0 9.49219,-3.94531 3.94531,-3.94531 3.94531,-9.49219 z m -6.64062,-10.27343 -0.76172,1.15234 q -0.64453,-0.42969 -1.15234,-0.68359 l 0.60547,-1.21094 q 0.78125,0.39062 1.30859,0.74219 z m 4.21875,4.78515 -1.21094,0.60547 q -0.2539,-0.52734 -0.68359,-1.15234 l 1.15234,-0.76172 q 0.35156,0.52734 0.74219,1.30859 z m -10.25391,-6.8164 -0.0977,1.36718 q -0.66407,-0.0391 -1.32813,0 l -0.0976,-1.36718 q 0.44921,-0.0195 0.37109,-0.0195 l 0.78125,0 q -0.0781,0 0.37109,0.0195 z m 11.5625,12.69531 q 0,-0.0781 -0.0195,0.37109 l -1.36719,-0.0976 q 0.0391,-0.66407 0,-1.32813 l 1.36719,-0.0976 q 0.0195,0.44921 0.0195,0.37109 l 0,0.78125 z M 180.83148,342.6189 q -0.52734,0.2539 -1.15234,0.68359 l -0.76172,-1.15234 q 0.52734,-0.35157 1.30859,-0.74219 l 0.60547,1.21094 z m 15.89844,15.29297 q -0.39063,0.78125 -0.74219,1.30859 l -1.15234,-0.76172 q 0.42969,-0.625 0.68359,-1.15234 l 1.21094,0.60547 z m -8.63281,-5.72266 q 0,0.9375 -0.70313,1.79687 -0.68359,0.85938 -1.60156,0.85938 -0.64453,0 -1.44531,-0.44922 -1.32813,-0.74219 -3.32032,-2.59766 -2.16796,-2.01171 -3.26171,-2.71484 -1.07422,-0.72266 -1.07422,-1.19141 0,-0.39062 0.27343,-0.74218 0.29297,-0.3711 0.6836,-0.3711 0.3125,0 1.21094,0.44922 1.13281,0.56641 3.98437,1.44531 2.59766,0.80079 3.92578,1.60157 1.32813,0.78125 1.32813,1.91406 z m -11.50391,-5.80078 q -0.42969,0.625 -0.68359,1.15234 l -1.21094,-0.60547 q 0.39062,-0.78125 0.74219,-1.30859 l 1.15234,0.76172 z m 15.91797,16.30859 q -0.52734,0.35156 -1.30859,0.74219 l -0.60547,-1.21094 q 0.52734,-0.2539 1.15234,-0.68359 l 0.76172,1.15234 z m -17.73438,-9.60937 -1.36718,0.0976 q -0.0195,-0.41015 -0.0195,-0.35156 l 0,-0.80078 q 0,0.0781 0.0195,-0.37109 l 1.36718,0.0976 q -0.0391,0.66406 0,1.32813 z m 11.69922,11.64062 q -0.44922,0.0195 -0.37109,0.0195 l -0.78125,0 q 0.0781,0 -0.37109,-0.0195 l 0.0976,-1.36719 q 0.66406,0.0391 1.32813,0 l 0.0977,1.36719 z m -9.88281,-6.26953 -1.15234,0.76172 q -0.35157,-0.52734 -0.74219,-1.30859 l 1.21094,-0.60547 q 0.2539,0.52734 0.68359,1.15234 z m 4.23828,3.76953 -0.60547,1.21094 q -0.78125,-0.39063 -1.30859,-0.74219 l 0.76172,-1.15234 q 0.625,0.42969 1.15234,0.68359 z"
         style="fill:#40c0ff;fill-opacity:1"
         id="path4141"
         inkscape:connector-curvature="0" />
    </g>
  </g>
</svg>
