<?xml version="1.0" encoding="UTF-8" standalone="no"?>
<!-- Created with Inkscape (http://www.inkscape.org/) -->

<svg
   xmlns:dc="http://purl.org/dc/elements/1.1/"
   xmlns:cc="http://creativecommons.org/ns#"
   xmlns:rdf="http://www.w3.org/1999/02/22-rdf-syntax-ns#"
   xmlns:svg="http://www.w3.org/2000/svg"
   xmlns="http://www.w3.org/2000/svg"
   xmlns:sodipodi="http://sodipodi.sourceforge.net/DTD/sodipodi-0.dtd"
   xmlns:inkscape="http://www.inkscape.org/namespaces/inkscape"
   width="28.222221mm"
   height="28.222221mm"
   viewBox="0 0 99.999997 99.999997"
   id="svg2"
   version="1.1"
   inkscape:version="0.91 r13725"
   sodipodi:docname="twitter.svg">
  <defs
     id="defs4" />
  <sodipodi:namedview
     id="base"
     pagecolor="#ffffff"
     bordercolor="#666666"
     borderopacity="1.0"
     inkscape:pageopacity="0.0"
     inkscape:pageshadow="2"
     inkscape:zoom="1.979899"
     inkscape:cx="-119.83218"
     inkscape:cy="26.207579"
     inkscape:document-units="px"
     inkscape:current-layer="layer1"
     showgrid="false"
     inkscape:snap-center="true"
     fit-margin-top="0"
     fit-margin-left="0"
     fit-margin-right="0"
     fit-margin-bottom="0"
     inkscape:window-width="1285"
     inkscape:window-height="744"
     inkscape:window-x="81"
     inkscape:window-y="24"
     inkscape:window-maximized="1" />
  <metadata
     id="metadata7">
    <rdf:RDF>
      <cc:Work
         rdf:about="">
        <dc:format>image/svg+xml</dc:format>
        <dc:type
           rdf:resource="http://purl.org/dc/dcmitype/StillImage" />
        <dc:title />
      </cc:Work>
    </rdf:RDF>
  </metadata>
  <g
     inkscape:label="Livello 1"
     inkscape:groupmode="layer"
     id="layer1"
     transform="translate(-84.442406,-475.73492)">
    <path
       style="fill:#55acef;fill-opacity:0.94117647"
       d="m 111.45401,562.47099 c -6.95685,-0.85871 -11.798693,-2.32581 -18.195336,-5.5133 -2.495491,-1.24352 -3.815762,-2.01276 -3.816265,-2.22347 -1.75e-4,-0.0732 0.818473,-0.13658 1.819216,-0.14079 3.965014,-0.0167 7.462995,-0.30408 9.630215,-0.79129 2.97575,-0.66898 6.03536,-1.70468 8.43198,-2.8543 2.21684,-1.06339 6.32688,-3.55796 6.46801,-3.92574 0.0511,-0.13303 -0.0763,-0.26052 -0.30561,-0.30591 -0.21623,-0.0428 -1.09027,-0.20713 -1.94233,-0.36513 -5.16139,-0.95716 -9.49103,-3.77428 -12.31413,-8.01233 -1.04241,-1.56486 -2.024319,-3.5769 -2.024319,-4.14803 0,-0.34608 0.112772,-0.35956 3.150899,-0.37662 3.12752,-0.0176 3.93941,-0.10048 4.00457,-0.40916 0.0187,-0.0884 -0.3871,-0.30368 -0.90166,-0.47858 -0.51456,-0.17491 -1.67285,-0.66966 -2.57397,-1.09946 -5.707468,-2.72222 -9.883324,-8.77834 -10.354238,-15.01644 -0.07601,-1.0069 -0.05324,-1.60793 0.06365,-1.68017 0.100098,-0.0619 0.609973,0.075 1.13305,0.30429 2.155133,0.94443 5.889662,1.85096 6.257568,1.51896 0.08749,-0.079 -0.502851,-0.76434 -1.316864,-1.52891 -3.221635,-3.02594 -5.017528,-6.35694 -5.781212,-10.72291 -0.395805,-2.26282 -0.255341,-5.47565 0.340717,-7.79314 0.484297,-1.88296 1.480976,-4.26037 1.786075,-4.26037 0.109418,0 1.748221,1.48486 3.641785,3.29969 3.981849,3.81628 5.809459,5.32567 8.892849,7.34443 6.38953,4.18337 14.40616,7.09034 22.29377,8.08411 2.84468,0.3584 3.55807,0.32192 3.47748,-0.17786 -0.18071,-1.12073 -0.0401,-6.51489 0.199,-7.6361 1.43347,-6.72087 6.94651,-12.38902 13.79321,-14.18126 1.55898,-0.4081 4.86334,-0.55475 6.95124,-0.30851 2.11627,0.24959 3.68153,0.71953 5.74112,1.7237 1.42175,0.69318 2.21759,1.23963 4.63599,3.18317 0.54399,0.43718 0.8127,0.52787 1.5005,0.50641 1.10972,-0.0346 5.12828,-1.41098 8.23601,-2.82083 1.45203,-0.65873 2.55662,-1.06423 2.64856,-0.97229 0.18828,0.18828 -0.9834,2.61386 -2.05927,4.26304 -0.414,0.63462 -1.65317,2.05082 -2.7537,3.14712 -1.10052,1.09629 -2.00096,2.03491 -2.00096,2.08581 0,0.34349 3.90244,-0.56439 7.145,-1.66225 1.19603,-0.40495 2.0858,-0.62345 2.0858,-0.51222 0,0.69457 -4.90754,6.04883 -7.70536,8.40674 l -1.04852,0.88368 -0.14702,3.10074 c -0.32476,6.8494 -1.24163,11.71678 -3.25459,17.2777 -2.911,8.04175 -6.81664,14.23737 -12.70569,20.1553 -6.69581,6.72866 -14.97746,11.34606 -24.22183,13.50476 -4.32283,1.00944 -5.48355,1.12138 -12.07106,1.1641 -3.41717,0.0222 -6.49263,0.006 -6.83433,-0.0364 z"
       id="path4147"
       inkscape:connector-curvature="0" />
  </g>
</svg>
